<?xml version="1.0" standalone="no"?>
<!DOCTYPE svg PUBLIC "-//W3C//DTD SVG 20010904//EN"
 "http://www.w3.org/TR/2001/REC-SVG-20010904/DTD/svg10.dtd">
<svg version="1.0" xmlns="http://www.w3.org/2000/svg"
 width="257.000000pt" height="117.000000pt" viewBox="0 0 257.000000 117.000000"
 preserveAspectRatio="xMidYMid meet">

<g transform="translate(0.000000,117.000000) scale(0.100000,-0.100000)"
fill="#000000" stroke="none">
<path d="M1070 974 c-23 -52 -20 -64 17 -64 25 0 25 1 10 18 -27 29 -21 44 16
40 28 -3 32 -6 29 -30 -3 -31 13 -37 26 -10 12 22 -9 73 -34 83 -36 14 -45 9
-64 -37z"/>
<path d="M448 939 c-33 -19 -20 -34 27 -34 45 0 56 10 33 33 -15 15 -37 15
-60 1z"/>
<path d="M2181 781 c-8 -5 -19 -7 -26 -5 -6 3 -25 -2 -41 -11 -16 -8 -42 -15
-59 -15 -25 -1 -27 -2 -12 -11 23 -14 22 -29 -4 -29 -16 0 -19 -4 -14 -22 4
-13 15 -34 25 -48 18 -26 17 -26 -21 -68 -22 -22 -39 -47 -39 -54 1 -18 43
-47 78 -54 27 -5 30 -3 35 28 19 95 45 210 51 215 3 4 6 -26 6 -65 0 -40 4
-72 9 -72 5 0 13 -26 17 -57 9 -55 29 -74 29 -25 -1 12 5 22 13 22 11 0 13 9
9 35 -3 19 -2 35 2 35 5 0 11 9 14 20 3 14 14 20 31 20 15 0 26 6 26 13 0 25
-92 157 -109 157 -3 0 -12 -4 -20 -9z"/>
<path d="M1118 743 c-20 -3 -28 -10 -28 -24 0 -17 -8 -19 -84 -19 -67 0 -85
-3 -90 -16 -3 -9 -6 -116 -6 -239 0 -189 -2 -225 -15 -235 -9 -7 -15 -23 -13
-34 3 -21 4 -21 468 -21 l465 0 3 27 c3 22 -2 29 -22 34 l-26 6 0 237 0 238
-251 6 c-199 5 -254 9 -263 21 -12 15 -92 26 -138 19z m72 -117 c0 -44 9 -66
26 -66 10 0 14 14 14 50 l0 50 255 0 255 0 0 -220 0 -220 -400 0 -400 0 0 220
0 220 125 0 125 0 0 -34z"/>
<path d="M1218 529 c-26 -14 -22 -39 5 -39 30 0 67 11 67 20 0 4 -11 12 -25
18 -30 14 -26 14 -47 1z"/>
<path d="M300 650 c-11 -11 -20 -25 -20 -31 0 -6 19 -49 42 -95 41 -80 41 -84
24 -103 -33 -37 3 -55 49 -25 25 17 27 39 5 89 -5 11 -17 38 -27 60 -9 22 -19
43 -21 48 -2 4 14 7 36 7 35 0 45 -6 74 -40 59 -69 64 -82 46 -146 -15 -53
-15 -59 3 -100 19 -45 42 -57 53 -28 3 8 -1 28 -9 43 -15 31 -11 59 20 119 16
32 16 35 -8 99 l-24 67 -84 28 c-99 33 -132 35 -159 8z"/>
<path d="M2008 215 c-6 -28 5 -50 21 -41 15 10 14 35 -3 51 -12 12 -14 11 -18
-10z"/>
<path d="M2180 212 c0 -19 18 -42 32 -42 14 0 8 20 -12 40 -19 19 -20 19 -20
2z"/>
</g>
</svg>
